<svg width="24" height="24" viewBox="0 0 24 24" fill="#787D85" xmlns="http://www.w3.org/2000/svg">
<path d="M12 12.892L5.67188 10.351V12.1868C5.67188 14.1911 8.39236 15.7024 12 15.7024C15.6076 15.7024 18.3281 14.1911 18.3281 12.1868V10.351L12 12.892Z"/>
<path d="M24 16.4055C24 15.4901 23.4104 14.7169 22.5938 14.4257V7.14159L24 6.56179L12 1.74707L0 6.56179L12 11.3766L21.1875 7.70624V14.4257C20.3708 14.7169 19.7812 15.4901 19.7812 16.4055C19.7812 17.2437 20.2762 17.9631 20.986 18.3031L19.8177 21.8081L21.1511 22.253L21.8906 20.0345L22.6301 22.253L23.9636 21.8081L22.7953 18.3031C23.505 17.9632 24 17.2437 24 16.4055Z"/>
</svg>
